<svg width="252" height="127" viewBox="0 0 252 127" fill="none" xmlns="http://www.w3.org/2000/svg">
<path d="M19.0448 49V24.15H29.4048C30.5015 24.15 31.5048 24.3833 32.4148 24.85C33.3248 25.2933 34.1182 25.9 34.7948 26.67C35.4715 27.4167 35.9965 28.2683 36.3698 29.225C36.7432 30.1583 36.9298 31.115 36.9298 32.095C36.9298 33.4483 36.6265 34.7433 36.0198 35.98C35.4132 37.1933 34.5615 38.185 33.4648 38.955C32.3682 39.7017 31.0848 40.075 29.6148 40.075H22.1948V49H19.0448ZM22.1948 37.275H29.4398C30.3032 37.275 31.0498 37.0417 31.6798 36.575C32.3332 36.1083 32.8348 35.4783 33.1848 34.685C33.5582 33.8917 33.7448 33.0283 33.7448 32.095C33.7448 31.115 33.5348 30.24 33.1148 29.47C32.6948 28.6767 32.1465 28.0583 31.4698 27.615C30.7932 27.1717 30.0465 26.95 29.2298 26.95H22.1948V37.275ZM50.0215 33.425C48.4815 33.4483 47.1165 33.845 45.9265 34.615C44.7598 35.3617 43.9315 36.4 43.4415 37.73V49H40.3615V30.73H43.2315V34.965C43.8615 33.705 44.6898 32.69 45.7165 31.92C46.7665 31.1267 47.8631 30.6833 49.0065 30.59C49.2398 30.59 49.4381 30.59 49.6015 30.59C49.7648 30.59 49.9048 30.6017 50.0215 30.625V33.425ZM60.612 49.35C59.2353 49.35 57.987 49.105 56.867 48.615C55.747 48.1017 54.7786 47.4133 53.962 46.55C53.1453 45.6633 52.5153 44.6483 52.072 43.505C51.6286 42.3617 51.407 41.16 51.407 39.9C51.407 38.6167 51.6286 37.4033 52.072 36.26C52.5153 35.1167 53.1453 34.1133 53.962 33.25C54.7786 32.3633 55.747 31.675 56.867 31.185C58.0103 30.6717 59.2586 30.415 60.612 30.415C61.9886 30.415 63.237 30.6717 64.357 31.185C65.477 31.675 66.4453 32.3633 67.262 33.25C68.102 34.1133 68.7436 35.1167 69.187 36.26C69.6303 37.4033 69.852 38.6167 69.852 39.9C69.852 41.16 69.6303 42.3617 69.187 43.505C68.7436 44.6483 68.1136 45.6633 67.297 46.55C66.4803 47.4133 65.5003 48.1017 64.357 48.615C63.237 49.105 61.9886 49.35 60.612 49.35ZM54.557 39.935C54.557 41.195 54.8253 42.3383 55.362 43.365C55.922 44.3917 56.657 45.2083 57.567 45.815C58.477 46.3983 59.492 46.69 60.612 46.69C61.732 46.69 62.747 46.3867 63.657 45.78C64.5903 45.1733 65.3253 44.3567 65.862 43.33C66.422 42.28 66.702 41.125 66.702 39.865C66.702 38.605 66.422 37.4617 65.862 36.435C65.3253 35.4083 64.5903 34.5917 63.657 33.985C62.747 33.3783 61.732 33.075 60.612 33.075C59.492 33.075 58.477 33.39 57.567 34.02C56.657 34.6267 55.922 35.4433 55.362 36.47C54.8253 37.4967 54.557 38.6517 54.557 39.935ZM71.2391 55.51C70.4458 55.51 69.6875 55.3933 68.9641 55.16C68.2408 54.9267 67.5991 54.5533 67.0391 54.04L68.4741 51.975C68.8008 52.2783 69.1858 52.4883 69.6291 52.605C70.0491 52.7217 70.4691 52.78 70.8891 52.78C71.4025 52.78 71.8808 52.6517 72.3241 52.395C72.7675 52.1383 73.1291 51.7767 73.4091 51.31C73.6891 50.8667 73.8291 50.365 73.8291 49.805V30.73H76.9091V49.595C76.9091 50.7383 76.6408 51.7533 76.1041 52.64C75.5675 53.55 74.8675 54.25 74.0041 54.74C73.1641 55.2533 72.2425 55.51 71.2391 55.51ZM73.8291 27.3V23.45H76.9091V27.3H73.8291ZM89.9748 49.35C88.5981 49.35 87.3381 49.105 86.1948 48.615C85.0748 48.1017 84.0948 47.4133 83.2548 46.55C82.4381 45.6633 81.7965 44.6483 81.3298 43.505C80.8865 42.3617 80.6648 41.1483 80.6648 39.865C80.6648 38.1383 81.0615 36.5633 81.8548 35.14C82.6481 33.7167 83.7448 32.5733 85.1448 31.71C86.5681 30.8467 88.1898 30.415 90.0098 30.415C91.8531 30.415 93.4515 30.8583 94.8048 31.745C96.1815 32.6083 97.2431 33.7517 97.9898 35.175C98.7598 36.575 99.1448 38.0917 99.1448 39.725C99.1448 39.9583 99.1331 40.1917 99.1098 40.425C99.1098 40.635 99.0981 40.7983 99.0748 40.915H83.9198C84.0131 42.105 84.3398 43.1667 84.8998 44.1C85.4831 45.01 86.2298 45.7333 87.1398 46.27C88.0498 46.7833 89.0298 47.04 90.0798 47.04C91.1998 47.04 92.2498 46.76 93.2298 46.2C94.2331 45.64 94.9215 44.905 95.2948 43.995L97.9548 44.73C97.5581 45.6167 96.9631 46.41 96.1698 47.11C95.3998 47.81 94.4781 48.3583 93.4048 48.755C92.3548 49.1517 91.2115 49.35 89.9748 49.35ZM83.8148 38.78H96.2748C96.1815 37.59 95.8431 36.54 95.2598 35.63C94.6765 34.72 93.9298 34.0083 93.0198 33.495C92.1098 32.9817 91.1065 32.725 90.0098 32.725C88.9365 32.725 87.9448 32.9817 87.0348 33.495C86.1248 34.0083 85.3781 34.72 84.7948 35.63C84.2348 36.54 83.9081 37.59 83.8148 38.78ZM111.848 48.09C111.591 48.2067 111.241 48.3583 110.798 48.545C110.354 48.7317 109.841 48.895 109.258 49.035C108.674 49.175 108.056 49.245 107.403 49.245C106.656 49.245 105.968 49.1167 105.338 48.86C104.708 48.58 104.206 48.16 103.833 47.6C103.459 47.0167 103.273 46.2933 103.273 45.43V33.145H100.788V30.73H103.273V24.64H106.353V30.73H110.448V33.145H106.353V44.485C106.399 45.1383 106.621 45.6283 107.018 45.955C107.414 46.2583 107.881 46.41 108.418 46.41C109.024 46.41 109.584 46.305 110.098 46.095C110.611 45.885 110.949 45.7333 111.113 45.64L111.848 48.09ZM122.443 49.35C121.066 49.35 119.818 49.105 118.698 48.615C117.578 48.1017 116.61 47.4133 115.793 46.55C114.976 45.6633 114.346 44.6483 113.903 43.505C113.46 42.3617 113.238 41.16 113.238 39.9C113.238 38.6167 113.46 37.4033 113.903 36.26C114.346 35.1167 114.976 34.1133 115.793 33.25C116.61 32.3633 117.578 31.675 118.698 31.185C119.841 30.6717 121.09 30.415 122.443 30.415C123.82 30.415 125.068 30.6717 126.188 31.185C127.308 31.675 128.276 32.3633 129.093 33.25C129.933 34.1133 130.575 35.1167 131.018 36.26C131.461 37.4033 131.683 38.6167 131.683 39.9C131.683 41.16 131.461 42.3617 131.018 43.505C130.575 44.6483 129.945 45.6633 129.128 46.55C128.311 47.4133 127.331 48.1017 126.188 48.615C125.068 49.105 123.82 49.35 122.443 49.35ZM116.388 39.935C116.388 41.195 116.656 42.3383 117.193 43.365C117.753 44.3917 118.488 45.2083 119.398 45.815C120.308 46.3983 121.323 46.69 122.443 46.69C123.563 46.69 124.578 46.3867 125.488 45.78C126.421 45.1733 127.156 44.3567 127.693 43.33C128.253 42.28 128.533 41.125 128.533 39.865C128.533 38.605 128.253 37.4617 127.693 36.435C127.156 35.4083 126.421 34.5917 125.488 33.985C124.578 33.3783 123.563 33.075 122.443 33.075C121.323 33.075 120.308 33.39 119.398 34.02C118.488 34.6267 117.753 35.4433 117.193 36.47C116.656 37.4967 116.388 38.6517 116.388 39.935Z" fill="#F97E0D"/>
<path d="M38.8564 69.565C38.5564 69.235 38.1214 68.89 37.5514 68.53C36.9814 68.14 36.3064 67.78 35.5264 67.45C34.7464 67.12 33.9064 66.85 33.0064 66.64C32.1064 66.43 31.1764 66.325 30.2164 66.325C28.1164 66.325 26.5564 66.715 25.5364 67.495C24.5164 68.275 24.0064 69.355 24.0064 70.735C24.0064 71.755 24.2914 72.565 24.8614 73.165C25.4314 73.735 26.3014 74.215 27.4714 74.605C28.6414 74.995 30.1114 75.415 31.8814 75.865C34.0414 76.375 35.9164 76.99 37.5064 77.71C39.0964 78.4 40.3114 79.33 41.1514 80.5C41.9914 81.67 42.4114 83.215 42.4114 85.135C42.4114 86.755 42.1114 88.15 41.5114 89.32C40.9114 90.49 40.0714 91.45 38.9914 92.2C37.9114 92.92 36.6664 93.46 35.2564 93.82C33.8464 94.15 32.3314 94.315 30.7114 94.315C29.1214 94.315 27.5314 94.15 25.9414 93.82C24.3814 93.49 22.8814 93.01 21.4414 92.38C20.0314 91.72 18.7264 90.925 17.5264 89.995L19.8214 85.675C20.2114 86.065 20.7664 86.5 21.4864 86.98C22.2364 87.43 23.0914 87.865 24.0514 88.285C25.0414 88.705 26.1064 89.065 27.2464 89.365C28.4164 89.635 29.6014 89.77 30.8014 89.77C32.8114 89.77 34.3414 89.425 35.3914 88.735C36.4714 88.015 37.0114 86.995 37.0114 85.675C37.0114 84.595 36.6664 83.74 35.9764 83.11C35.2864 82.45 34.2814 81.895 32.9614 81.445C31.6414 80.995 30.0664 80.545 28.2364 80.095C26.1364 79.525 24.3814 78.91 22.9714 78.25C21.5614 77.56 20.4964 76.69 19.7764 75.64C19.0864 74.56 18.7414 73.195 18.7414 71.545C18.7414 69.445 19.2514 67.675 20.2714 66.235C21.2914 64.765 22.6714 63.67 24.4114 62.95C26.1814 62.2 28.1614 61.825 30.3514 61.825C31.7914 61.825 33.1564 61.99 34.4464 62.32C35.7364 62.62 36.9364 63.04 38.0464 63.58C39.1864 64.12 40.2214 64.735 41.1514 65.425L38.8564 69.565ZM57.5012 94.45C55.6712 94.45 54.0062 94.135 52.5062 93.505C51.0362 92.845 49.7612 91.96 48.6812 90.85C47.6012 89.71 46.7612 88.42 46.1612 86.98C45.5912 85.51 45.3062 83.95 45.3062 82.3C45.3062 80.08 45.8162 78.055 46.8362 76.225C47.8562 74.365 49.2812 72.88 51.1112 71.77C52.9412 70.63 55.0862 70.06 57.5462 70.06C60.0062 70.06 62.1212 70.63 63.8912 71.77C65.6912 72.88 67.0862 74.35 68.0762 76.18C69.0662 78.01 69.5612 79.975 69.5612 82.075C69.5612 82.435 69.5462 82.78 69.5162 83.11C69.4862 83.41 69.4562 83.665 69.4262 83.875H50.5712C50.6612 85.255 51.0362 86.47 51.6962 87.52C52.3862 88.54 53.2562 89.35 54.3062 89.95C55.3562 90.52 56.4812 90.805 57.6812 90.805C59.0012 90.805 60.2462 90.475 61.4162 89.815C62.6162 89.155 63.4262 88.285 63.8462 87.205L68.0762 88.42C67.5662 89.56 66.7862 90.595 65.7362 91.525C64.7162 92.425 63.5012 93.145 62.0912 93.685C60.6812 94.195 59.1512 94.45 57.5012 94.45ZM50.4362 80.59H64.6562C64.5662 79.24 64.1762 78.055 63.4862 77.035C62.8262 75.985 61.9712 75.175 60.9212 74.605C59.9012 74.005 58.7612 73.705 57.5012 73.705C56.2712 73.705 55.1312 74.005 54.0812 74.605C53.0612 75.175 52.2212 75.985 51.5612 77.035C50.9012 78.055 50.5262 79.24 50.4362 80.59ZM109.599 94H104.649V80.815C104.649 78.625 104.289 77.02 103.569 76C102.849 74.98 101.799 74.47 100.419 74.47C99.0389 74.47 97.7489 74.995 96.5489 76.045C95.3789 77.065 94.5539 78.4 94.0739 80.05V94H89.1239V80.815C89.1239 78.625 88.7639 77.02 88.0439 76C87.3239 74.98 86.2889 74.47 84.9389 74.47C83.5589 74.47 82.2689 74.98 81.0689 76C79.8989 77.02 79.0589 78.355 78.5489 80.005V94H73.5989V70.465H78.0989V75.19C79.0289 73.54 80.2439 72.28 81.7439 71.41C83.2739 70.51 85.0139 70.06 86.9639 70.06C88.9139 70.06 90.4439 70.57 91.5539 71.59C92.6939 72.61 93.3989 73.885 93.6689 75.415C94.6889 73.675 95.9339 72.355 97.4039 71.455C98.9039 70.525 100.614 70.06 102.534 70.06C103.914 70.06 105.069 70.315 105.999 70.825C106.929 71.335 107.649 72.04 108.159 72.94C108.669 73.81 109.029 74.83 109.239 76C109.479 77.14 109.599 78.355 109.599 79.645V94ZM127.051 94V62.05H140.461C141.901 62.05 143.221 62.35 144.421 62.95C145.621 63.55 146.671 64.345 147.571 65.335C148.471 66.325 149.161 67.435 149.641 68.665C150.121 69.895 150.361 71.155 150.361 72.445C150.361 74.215 149.956 75.91 149.146 77.53C148.366 79.12 147.241 80.41 145.771 81.4C144.331 82.39 142.651 82.885 140.731 82.885H132.091V94H127.051ZM132.091 78.43H140.416C141.376 78.43 142.216 78.175 142.936 77.665C143.656 77.125 144.211 76.405 144.601 75.505C145.021 74.605 145.231 73.585 145.231 72.445C145.231 71.275 144.991 70.24 144.511 69.34C144.031 68.44 143.401 67.75 142.621 67.27C141.871 66.76 141.046 66.505 140.146 66.505H132.091V78.43ZM152.485 87.115C152.485 85.615 152.905 84.31 153.745 83.2C154.615 82.06 155.8 81.19 157.3 80.59C158.8 79.96 160.54 79.645 162.52 79.645C163.57 79.645 164.635 79.72 165.715 79.87C166.825 80.02 167.8 80.26 168.64 80.59V79.105C168.64 77.455 168.145 76.165 167.155 75.235C166.165 74.305 164.74 73.84 162.88 73.84C161.56 73.84 160.315 74.08 159.145 74.56C157.975 75.01 156.73 75.655 155.41 76.495L153.745 73.165C155.305 72.115 156.865 71.335 158.425 70.825C160.015 70.315 161.68 70.06 163.42 70.06C166.57 70.06 169.045 70.9 170.845 72.58C172.675 74.23 173.59 76.585 173.59 79.645V88.42C173.59 88.99 173.68 89.395 173.86 89.635C174.07 89.875 174.415 90.01 174.895 90.04V94C174.445 94.09 174.04 94.15 173.68 94.18C173.32 94.21 173.02 94.225 172.78 94.225C171.73 94.225 170.935 93.97 170.395 93.46C169.855 92.95 169.54 92.35 169.45 91.66L169.315 90.31C168.295 91.63 166.99 92.65 165.4 93.37C163.81 94.09 162.205 94.45 160.585 94.45C159.025 94.45 157.63 94.135 156.4 93.505C155.17 92.845 154.21 91.96 153.52 90.85C152.83 89.74 152.485 88.495 152.485 87.115ZM167.47 88.555C167.83 88.165 168.115 87.775 168.325 87.385C168.535 86.995 168.64 86.65 168.64 86.35V83.65C167.8 83.32 166.915 83.08 165.985 82.93C165.055 82.75 164.14 82.66 163.24 82.66C161.44 82.66 159.97 83.02 158.83 83.74C157.72 84.46 157.165 85.45 157.165 86.71C157.165 87.4 157.345 88.06 157.705 88.69C158.095 89.32 158.635 89.83 159.325 90.22C160.045 90.61 160.93 90.805 161.98 90.805C163.06 90.805 164.095 90.595 165.085 90.175C166.075 89.755 166.87 89.215 167.47 88.555ZM192.825 74.74C190.905 74.77 189.195 75.205 187.695 76.045C186.225 76.885 185.175 78.07 184.545 79.6V94H179.595V70.465H184.185V75.73C184.995 74.11 186.06 72.82 187.38 71.86C188.7 70.87 190.095 70.33 191.565 70.24C191.865 70.24 192.105 70.24 192.285 70.24C192.495 70.24 192.675 70.255 192.825 70.285V74.74ZM194.672 87.115C194.672 85.615 195.092 84.31 195.932 83.2C196.802 82.06 197.987 81.19 199.487 80.59C200.987 79.96 202.727 79.645 204.707 79.645C205.757 79.645 206.822 79.72 207.902 79.87C209.012 80.02 209.987 80.26 210.827 80.59V79.105C210.827 77.455 210.332 76.165 209.342 75.235C208.352 74.305 206.927 73.84 205.067 73.84C203.747 73.84 202.502 74.08 201.332 74.56C200.162 75.01 198.917 75.655 197.597 76.495L195.932 73.165C197.492 72.115 199.052 71.335 200.612 70.825C202.202 70.315 203.867 70.06 205.607 70.06C208.757 70.06 211.232 70.9 213.032 72.58C214.862 74.23 215.777 76.585 215.777 79.645V88.42C215.777 88.99 215.867 89.395 216.047 89.635C216.257 89.875 216.602 90.01 217.082 90.04V94C216.632 94.09 216.227 94.15 215.867 94.18C215.507 94.21 215.207 94.225 214.967 94.225C213.917 94.225 213.122 93.97 212.582 93.46C212.042 92.95 211.727 92.35 211.637 91.66L211.502 90.31C210.482 91.63 209.177 92.65 207.587 93.37C205.997 94.09 204.392 94.45 202.772 94.45C201.212 94.45 199.817 94.135 198.587 93.505C197.357 92.845 196.397 91.96 195.707 90.85C195.017 89.74 194.672 88.495 194.672 87.115ZM209.657 88.555C210.017 88.165 210.302 87.775 210.512 87.385C210.722 86.995 210.827 86.65 210.827 86.35V83.65C209.987 83.32 209.102 83.08 208.172 82.93C207.242 82.75 206.327 82.66 205.427 82.66C203.627 82.66 202.157 83.02 201.017 83.74C199.907 84.46 199.352 85.45 199.352 86.71C199.352 87.4 199.532 88.06 199.892 88.69C200.282 89.32 200.822 89.83 201.512 90.22C202.232 90.61 203.117 90.805 204.167 90.805C205.247 90.805 206.282 90.595 207.272 90.175C208.262 89.755 209.057 89.215 209.657 88.555ZM235.013 74.74C233.093 74.77 231.383 75.205 229.883 76.045C228.413 76.885 227.363 78.07 226.733 79.6V94H221.782V70.465H226.373V75.73C227.183 74.11 228.248 72.82 229.568 71.86C230.888 70.87 232.283 70.33 233.753 70.24C234.053 70.24 234.293 70.24 234.473 70.24C234.683 70.24 234.863 70.255 235.013 70.285V74.74Z" fill="#8010F0"/>
<path d="M26.9008 115V105.174L22.5318 112.807H21.7838L17.3978 105.174V115H16.2078V102.93H17.4318L22.1408 111.192L26.8838 102.93H28.0908V115H26.9008ZM34.5702 115.17C33.9355 115.17 33.3462 115.051 32.8022 114.813C32.2582 114.564 31.7879 114.229 31.3912 113.81C30.9945 113.379 30.6829 112.886 30.4562 112.331C30.2409 111.776 30.1332 111.181 30.1332 110.546C30.1332 109.719 30.3202 108.959 30.6942 108.268C31.0795 107.577 31.6065 107.027 32.2752 106.619C32.9439 106.2 33.7032 105.99 34.5532 105.99C35.4259 105.99 36.1852 106.2 36.8312 106.619C37.4885 107.038 38.0042 107.594 38.3782 108.285C38.7522 108.965 38.9392 109.713 38.9392 110.529C38.9392 110.62 38.9392 110.71 38.9392 110.801C38.9392 110.88 38.9335 110.943 38.9222 110.988H31.3402C31.3969 111.623 31.5725 112.189 31.8672 112.688C32.1732 113.175 32.5642 113.566 33.0402 113.861C33.5275 114.144 34.0545 114.286 34.6212 114.286C35.1992 114.286 35.7432 114.139 36.2532 113.844C36.7745 113.549 37.1372 113.164 37.3412 112.688L38.3442 112.96C38.1629 113.379 37.8852 113.759 37.5112 114.099C37.1372 114.439 36.6952 114.705 36.1852 114.898C35.6865 115.079 35.1482 115.17 34.5702 115.17ZM31.3062 110.155H37.8512C37.8059 109.509 37.6302 108.942 37.3242 108.455C37.0295 107.968 36.6385 107.588 36.1512 107.316C35.6752 107.033 35.1482 106.891 34.5702 106.891C33.9922 106.891 33.4652 107.033 32.9892 107.316C32.5132 107.588 32.1222 107.973 31.8162 108.472C31.5215 108.959 31.3515 109.52 31.3062 110.155ZM48.1688 115H47.0128V110.053C47.0128 109.01 46.8598 108.251 46.5538 107.775C46.2478 107.288 45.7661 107.044 45.1088 107.044C44.6554 107.044 44.2078 107.157 43.7658 107.384C43.3238 107.599 42.9328 107.9 42.5928 108.285C42.2641 108.659 42.0261 109.09 41.8788 109.577V115H40.7228V106.143H41.7768V108.149C42.0148 107.718 42.3264 107.344 42.7118 107.027C43.0971 106.698 43.5334 106.443 44.0208 106.262C44.5081 106.081 45.0124 105.99 45.5338 105.99C46.0211 105.99 46.4348 106.081 46.7748 106.262C47.1148 106.443 47.3868 106.704 47.5908 107.044C47.7948 107.373 47.9421 107.775 48.0328 108.251C48.1234 108.716 48.1688 109.237 48.1688 109.815V115ZM50.6339 115V106.143H51.7899V115H50.6339ZM50.6339 104.29V102.59H51.7899V104.29H50.6339ZM61.782 115H60.626V110.053C60.626 109.01 60.473 108.251 60.167 107.775C59.861 107.288 59.3794 107.044 58.722 107.044C58.2687 107.044 57.821 107.157 57.379 107.384C56.937 107.599 56.546 107.9 56.206 108.285C55.8774 108.659 55.6394 109.09 55.492 109.577V115H54.336V106.143H55.39V108.149C55.628 107.718 55.9397 107.344 56.325 107.027C56.7104 106.698 57.1467 106.443 57.634 106.262C58.1214 106.081 58.6257 105.99 59.147 105.99C59.6344 105.99 60.048 106.081 60.388 106.262C60.728 106.443 61 106.704 61.204 107.044C61.408 107.373 61.5554 107.775 61.646 108.251C61.7367 108.716 61.782 109.237 61.782 109.815V115ZM63.5332 112.45C63.5332 111.895 63.6918 111.419 64.0092 111.022C64.3265 110.614 64.7628 110.302 65.3182 110.087C65.8848 109.86 66.5365 109.747 67.2732 109.747C67.7038 109.747 68.1515 109.781 68.6162 109.849C69.0808 109.917 69.4945 110.019 69.8572 110.155V109.407C69.8572 108.659 69.6362 108.064 69.1942 107.622C68.7522 107.18 68.1402 106.959 67.3582 106.959C66.8822 106.959 66.4118 107.05 65.9472 107.231C65.4938 107.401 65.0178 107.656 64.5192 107.996L64.0772 107.18C64.6552 106.783 65.2218 106.489 65.7772 106.296C66.3325 106.092 66.8992 105.99 67.4772 105.99C68.5652 105.99 69.4265 106.302 70.0612 106.925C70.6958 107.548 71.0132 108.41 71.0132 109.509V113.606C71.0132 113.765 71.0472 113.884 71.1152 113.963C71.1832 114.031 71.2908 114.071 71.4382 114.082V115C71.3135 115.011 71.2058 115.023 71.1152 115.034C71.0245 115.045 70.9565 115.045 70.9112 115.034C70.6278 115.023 70.4125 114.932 70.2652 114.762C70.1178 114.592 70.0385 114.411 70.0272 114.218L70.0102 113.572C69.6135 114.082 69.0978 114.479 68.4632 114.762C67.8285 115.034 67.1825 115.17 66.5252 115.17C65.9585 115.17 65.4428 115.051 64.9782 114.813C64.5248 114.564 64.1678 114.235 63.9072 113.827C63.6578 113.408 63.5332 112.949 63.5332 112.45ZM69.4662 113.13C69.5908 112.971 69.6872 112.818 69.7552 112.671C69.8232 112.524 69.8572 112.393 69.8572 112.28V110.988C69.4718 110.841 69.0695 110.727 68.6502 110.648C68.2422 110.569 67.8285 110.529 67.4092 110.529C66.5818 110.529 65.9132 110.693 65.4032 111.022C64.8932 111.351 64.6382 111.798 64.6382 112.365C64.6382 112.694 64.7232 113.005 64.8932 113.3C65.0632 113.583 65.3125 113.821 65.6412 114.014C65.9698 114.195 66.3552 114.286 66.7972 114.286C67.3525 114.286 67.8682 114.178 68.3442 113.963C68.8315 113.748 69.2055 113.47 69.4662 113.13ZM76.4178 115.17C75.6925 115.17 75.0182 115.051 74.3948 114.813C73.7715 114.575 73.2332 114.212 72.7798 113.725L73.2558 112.909C73.7545 113.374 74.2532 113.714 74.7518 113.929C75.2618 114.133 75.8002 114.235 76.3668 114.235C77.0582 114.235 77.6192 114.099 78.0498 113.827C78.4805 113.544 78.6958 113.141 78.6958 112.62C78.6958 112.269 78.5882 112.002 78.3728 111.821C78.1688 111.628 77.8685 111.475 77.4718 111.362C77.0865 111.237 76.6218 111.107 76.0778 110.971C75.4658 110.801 74.9502 110.625 74.5308 110.444C74.1228 110.251 73.8112 110.013 73.5958 109.73C73.3918 109.435 73.2898 109.056 73.2898 108.591C73.2898 108.013 73.4315 107.537 73.7148 107.163C74.0095 106.778 74.4062 106.489 74.9048 106.296C75.4148 106.092 75.9815 105.99 76.6048 105.99C77.2848 105.99 77.8855 106.098 78.4068 106.313C78.9282 106.528 79.3532 106.829 79.6818 107.214L79.1208 107.996C78.8035 107.633 78.4238 107.367 77.9818 107.197C77.5512 107.016 77.0695 106.925 76.5368 106.925C76.1742 106.925 75.8285 106.976 75.4998 107.078C75.1712 107.169 74.8992 107.327 74.6838 107.554C74.4798 107.769 74.3778 108.07 74.3778 108.455C74.3778 108.772 74.4572 109.022 74.6158 109.203C74.7745 109.373 75.0125 109.52 75.3298 109.645C75.6472 109.758 76.0382 109.883 76.5028 110.019C77.1715 110.2 77.7552 110.387 78.2538 110.58C78.7525 110.761 79.1378 110.999 79.4098 111.294C79.6818 111.589 79.8178 112.002 79.8178 112.535C79.8178 113.362 79.5062 114.008 78.8828 114.473C78.2595 114.938 77.4378 115.17 76.4178 115.17ZM89.8866 115.17C89.252 115.17 88.6626 115.051 88.1186 114.813C87.5746 114.564 87.1043 114.229 86.7076 113.81C86.311 113.379 85.9993 112.886 85.7726 112.331C85.5573 111.776 85.4496 111.181 85.4496 110.546C85.4496 109.719 85.6366 108.959 86.0106 108.268C86.396 107.577 86.923 107.027 87.5916 106.619C88.2603 106.2 89.0196 105.99 89.8696 105.99C90.7423 105.99 91.5016 106.2 92.1476 106.619C92.805 107.038 93.3206 107.594 93.6946 108.285C94.0686 108.965 94.2556 109.713 94.2556 110.529C94.2556 110.62 94.2556 110.71 94.2556 110.801C94.2556 110.88 94.25 110.943 94.2386 110.988H86.6566C86.7133 111.623 86.889 112.189 87.1836 112.688C87.4896 113.175 87.8806 113.566 88.3566 113.861C88.844 114.144 89.371 114.286 89.9376 114.286C90.5156 114.286 91.0596 114.139 91.5696 113.844C92.091 113.549 92.4536 113.164 92.6576 112.688L93.6606 112.96C93.4793 113.379 93.2016 113.759 92.8276 114.099C92.4536 114.439 92.0116 114.705 91.5016 114.898C91.003 115.079 90.4646 115.17 89.8866 115.17ZM86.6226 110.155H93.1676C93.1223 109.509 92.9466 108.942 92.6406 108.455C92.346 107.968 91.955 107.588 91.4676 107.316C90.9916 107.033 90.4646 106.891 89.8866 106.891C89.3086 106.891 88.7816 107.033 88.3056 107.316C87.8296 107.588 87.4386 107.973 87.1326 108.472C86.838 108.959 86.668 109.52 86.6226 110.155ZM103.485 115H102.329V110.053C102.329 109.01 102.176 108.251 101.87 107.775C101.564 107.288 101.082 107.044 100.425 107.044C99.9718 107.044 99.5242 107.157 99.0822 107.384C98.6402 107.599 98.2492 107.9 97.9092 108.285C97.5805 108.659 97.3425 109.09 97.1952 109.577V115H96.0392V106.143H97.0932V108.149C97.3312 107.718 97.6428 107.344 98.0282 107.027C98.4135 106.698 98.8498 106.443 99.3372 106.262C99.8245 106.081 100.329 105.99 100.85 105.99C101.337 105.99 101.751 106.081 102.091 106.262C102.431 106.443 102.703 106.704 102.907 107.044C103.111 107.373 103.258 107.775 103.349 108.251C103.44 108.716 103.485 109.237 103.485 109.815V115ZM108.857 115.17C108.132 115.17 107.458 115.051 106.834 114.813C106.211 114.575 105.673 114.212 105.219 113.725L105.695 112.909C106.194 113.374 106.693 113.714 107.191 113.929C107.701 114.133 108.24 114.235 108.806 114.235C109.498 114.235 110.059 114.099 110.489 113.827C110.92 113.544 111.135 113.141 111.135 112.62C111.135 112.269 111.028 112.002 110.812 111.821C110.608 111.628 110.308 111.475 109.911 111.362C109.526 111.237 109.061 111.107 108.517 110.971C107.905 110.801 107.39 110.625 106.97 110.444C106.562 110.251 106.251 110.013 106.035 109.73C105.831 109.435 105.729 109.056 105.729 108.591C105.729 108.013 105.871 107.537 106.154 107.163C106.449 106.778 106.846 106.489 107.344 106.296C107.854 106.092 108.421 105.99 109.044 105.99C109.724 105.99 110.325 106.098 110.846 106.313C111.368 106.528 111.793 106.829 112.121 107.214L111.56 107.996C111.243 107.633 110.863 107.367 110.421 107.197C109.991 107.016 109.509 106.925 108.976 106.925C108.614 106.925 108.268 106.976 107.939 107.078C107.611 107.169 107.339 107.327 107.123 107.554C106.919 107.769 106.817 108.07 106.817 108.455C106.817 108.772 106.897 109.022 107.055 109.203C107.214 109.373 107.452 109.52 107.769 109.645C108.087 109.758 108.478 109.883 108.942 110.019C109.611 110.2 110.195 110.387 110.693 110.58C111.192 110.761 111.577 110.999 111.849 111.294C112.121 111.589 112.257 112.002 112.257 112.535C112.257 113.362 111.946 114.008 111.322 114.473C110.699 114.938 109.877 115.17 108.857 115.17ZM114.168 115V106.143H115.324V115H114.168ZM114.168 104.29V102.59H115.324V104.29H114.168ZM125.316 115H124.16V110.053C124.16 109.01 124.007 108.251 123.701 107.775C123.395 107.288 122.914 107.044 122.256 107.044C121.803 107.044 121.355 107.157 120.913 107.384C120.471 107.599 120.08 107.9 119.74 108.285C119.412 108.659 119.174 109.09 119.026 109.577V115H117.87V106.143H118.924V108.149C119.162 107.718 119.474 107.344 119.859 107.027C120.245 106.698 120.681 106.443 121.168 106.262C121.656 106.081 122.16 105.99 122.681 105.99C123.169 105.99 123.582 106.081 123.922 106.262C124.262 106.443 124.534 106.704 124.738 107.044C124.942 107.373 125.09 107.775 125.18 108.251C125.271 108.716 125.316 109.237 125.316 109.815V115ZM127.067 112.45C127.067 111.895 127.226 111.419 127.543 111.022C127.861 110.614 128.297 110.302 128.852 110.087C129.419 109.86 130.071 109.747 130.807 109.747C131.238 109.747 131.686 109.781 132.15 109.849C132.615 109.917 133.029 110.019 133.391 110.155V109.407C133.391 108.659 133.17 108.064 132.728 107.622C132.286 107.18 131.674 106.959 130.892 106.959C130.416 106.959 129.946 107.05 129.481 107.231C129.028 107.401 128.552 107.656 128.053 107.996L127.611 107.18C128.189 106.783 128.756 106.489 129.311 106.296C129.867 106.092 130.433 105.99 131.011 105.99C132.099 105.99 132.961 106.302 133.595 106.925C134.23 107.548 134.547 108.41 134.547 109.509V113.606C134.547 113.765 134.581 113.884 134.649 113.963C134.717 114.031 134.825 114.071 134.972 114.082V115C134.848 115.011 134.74 115.023 134.649 115.034C134.559 115.045 134.491 115.045 134.445 115.034C134.162 115.023 133.947 114.932 133.799 114.762C133.652 114.592 133.573 114.411 133.561 114.218L133.544 113.572C133.148 114.082 132.632 114.479 131.997 114.762C131.363 115.034 130.717 115.17 130.059 115.17C129.493 115.17 128.977 115.051 128.512 114.813C128.059 114.564 127.702 114.235 127.441 113.827C127.192 113.408 127.067 112.949 127.067 112.45ZM133 113.13C133.125 112.971 133.221 112.818 133.289 112.671C133.357 112.524 133.391 112.393 133.391 112.28V110.988C133.006 110.841 132.604 110.727 132.184 110.648C131.776 110.569 131.363 110.529 130.943 110.529C130.116 110.529 129.447 110.693 128.937 111.022C128.427 111.351 128.172 111.798 128.172 112.365C128.172 112.694 128.257 113.005 128.427 113.3C128.597 113.583 128.847 113.821 129.175 114.014C129.504 114.195 129.889 114.286 130.331 114.286C130.887 114.286 131.402 114.178 131.878 113.963C132.366 113.748 132.74 113.47 133 113.13ZM144.491 115H143.335V110.053C143.335 109.01 143.182 108.251 142.876 107.775C142.57 107.288 142.088 107.044 141.431 107.044C140.978 107.044 140.53 107.157 140.088 107.384C139.646 107.599 139.255 107.9 138.915 108.285C138.586 108.659 138.348 109.09 138.201 109.577V115H137.045V106.143H138.099V108.149C138.337 107.718 138.649 107.344 139.034 107.027C139.419 106.698 139.856 106.443 140.343 106.262C140.83 106.081 141.335 105.99 141.856 105.99C142.343 105.99 142.757 106.081 143.097 106.262C143.437 106.443 143.709 106.704 143.913 107.044C144.117 107.373 144.264 107.775 144.355 108.251C144.446 108.716 144.491 109.237 144.491 109.815V115ZM146.361 110.597C146.361 109.758 146.531 108.993 146.871 108.302C147.222 107.599 147.704 107.038 148.316 106.619C148.928 106.2 149.625 105.99 150.407 105.99C151.144 105.99 151.801 106.188 152.379 106.585C152.968 106.97 153.427 107.441 153.756 107.996V102.59H154.912V113.606C154.912 113.765 154.946 113.884 155.014 113.963C155.082 114.031 155.184 114.071 155.32 114.082V115C155.093 115.034 154.918 115.045 154.793 115.034C154.555 115.023 154.345 114.926 154.164 114.745C153.983 114.564 153.892 114.365 153.892 114.15V113.283C153.541 113.861 153.065 114.32 152.464 114.66C151.863 115 151.24 115.17 150.594 115.17C149.982 115.17 149.415 115.045 148.894 114.796C148.384 114.547 147.936 114.207 147.551 113.776C147.177 113.345 146.882 112.858 146.667 112.314C146.463 111.759 146.361 111.186 146.361 110.597ZM153.756 111.957V109.22C153.609 108.812 153.371 108.444 153.042 108.115C152.713 107.775 152.339 107.509 151.92 107.316C151.512 107.112 151.104 107.01 150.696 107.01C150.22 107.01 149.789 107.112 149.404 107.316C149.019 107.509 148.684 107.775 148.401 108.115C148.129 108.455 147.919 108.84 147.772 109.271C147.625 109.702 147.551 110.144 147.551 110.597C147.551 111.073 147.63 111.526 147.789 111.957C147.959 112.388 148.197 112.773 148.503 113.113C148.809 113.442 149.16 113.697 149.557 113.878C149.954 114.059 150.384 114.15 150.849 114.15C151.144 114.15 151.45 114.093 151.767 113.98C152.084 113.867 152.385 113.714 152.668 113.521C152.963 113.317 153.206 113.079 153.399 112.807C153.592 112.535 153.711 112.252 153.756 111.957ZM161.305 115.17C160.671 115.17 160.081 115.051 159.537 114.813C159.005 114.564 158.54 114.229 158.143 113.81C157.758 113.379 157.458 112.892 157.242 112.348C157.027 111.793 156.919 111.209 156.919 110.597C156.919 109.962 157.027 109.373 157.242 108.829C157.458 108.274 157.764 107.786 158.16 107.367C158.557 106.936 159.022 106.602 159.554 106.364C160.098 106.115 160.688 105.99 161.322 105.99C161.957 105.99 162.541 106.115 163.073 106.364C163.606 106.602 164.071 106.936 164.467 107.367C164.864 107.786 165.17 108.274 165.385 108.829C165.601 109.373 165.708 109.962 165.708 110.597C165.708 111.209 165.601 111.793 165.385 112.348C165.17 112.892 164.864 113.379 164.467 113.81C164.082 114.229 163.617 114.564 163.073 114.813C162.541 115.051 161.951 115.17 161.305 115.17ZM158.092 110.614C158.092 111.271 158.234 111.872 158.517 112.416C158.812 112.949 159.203 113.374 159.69 113.691C160.178 113.997 160.716 114.15 161.305 114.15C161.895 114.15 162.433 113.991 162.92 113.674C163.408 113.357 163.799 112.926 164.093 112.382C164.388 111.827 164.535 111.226 164.535 110.58C164.535 109.923 164.388 109.322 164.093 108.778C163.799 108.234 163.408 107.803 162.92 107.486C162.433 107.169 161.895 107.01 161.305 107.01C160.716 107.01 160.178 107.174 159.69 107.503C159.214 107.832 158.829 108.268 158.534 108.812C158.24 109.345 158.092 109.945 158.092 110.614ZM185.15 115H183.994V110.053C183.994 109.022 183.829 108.262 183.501 107.775C183.172 107.288 182.685 107.044 182.039 107.044C181.37 107.044 180.769 107.282 180.237 107.758C179.715 108.234 179.347 108.846 179.132 109.594V115H177.976V110.053C177.976 109.01 177.817 108.251 177.5 107.775C177.182 107.288 176.695 107.044 176.038 107.044C175.38 107.044 174.785 107.276 174.253 107.741C173.72 108.206 173.346 108.818 173.131 109.577V115H171.975V106.143H173.029V108.149C173.403 107.458 173.879 106.925 174.457 106.551C175.046 106.177 175.698 105.99 176.412 105.99C177.148 105.99 177.743 106.2 178.197 106.619C178.65 107.038 178.928 107.588 179.03 108.268C179.438 107.52 179.925 106.953 180.492 106.568C181.07 106.183 181.721 105.99 182.447 105.99C182.945 105.99 183.365 106.081 183.705 106.262C184.056 106.443 184.334 106.704 184.538 107.044C184.753 107.373 184.906 107.775 184.997 108.251C185.099 108.716 185.15 109.237 185.15 109.815V115ZM191.422 115.17C190.787 115.17 190.198 115.051 189.654 114.813C189.11 114.564 188.639 114.229 188.243 113.81C187.846 113.379 187.534 112.886 187.308 112.331C187.092 111.776 186.985 111.181 186.985 110.546C186.985 109.719 187.172 108.959 187.546 108.268C187.931 107.577 188.458 107.027 189.127 106.619C189.795 106.2 190.555 105.99 191.405 105.99C192.277 105.99 193.037 106.2 193.683 106.619C194.34 107.038 194.856 107.594 195.23 108.285C195.604 108.965 195.791 109.713 195.791 110.529C195.791 110.62 195.791 110.71 195.791 110.801C195.791 110.88 195.785 110.943 195.774 110.988H188.192C188.248 111.623 188.424 112.189 188.719 112.688C189.025 113.175 189.416 113.566 189.892 113.861C190.379 114.144 190.906 114.286 191.473 114.286C192.051 114.286 192.595 114.139 193.105 113.844C193.626 113.549 193.989 113.164 194.193 112.688L195.196 112.96C195.014 113.379 194.737 113.759 194.363 114.099C193.989 114.439 193.547 114.705 193.037 114.898C192.538 115.079 192 115.17 191.422 115.17ZM188.158 110.155H194.703C194.657 109.509 194.482 108.942 194.176 108.455C193.881 107.968 193.49 107.588 193.003 107.316C192.527 107.033 192 106.891 191.422 106.891C190.844 106.891 190.317 107.033 189.841 107.316C189.365 107.588 188.974 107.973 188.668 108.472C188.373 108.959 188.203 109.52 188.158 110.155ZM205.02 115H203.864V110.053C203.864 109.01 203.711 108.251 203.405 107.775C203.099 107.288 202.618 107.044 201.96 107.044C201.507 107.044 201.059 107.157 200.617 107.384C200.175 107.599 199.784 107.9 199.444 108.285C199.116 108.659 198.878 109.09 198.73 109.577V115H197.574V106.143H198.628V108.149C198.866 107.718 199.178 107.344 199.563 107.027C199.949 106.698 200.385 106.443 200.872 106.262C201.36 106.081 201.864 105.99 202.385 105.99C202.873 105.99 203.286 106.081 203.626 106.262C203.966 106.443 204.238 106.704 204.442 107.044C204.646 107.373 204.794 107.775 204.884 108.251C204.975 108.716 205.02 109.237 205.02 109.815V115ZM207.485 115V106.143H208.641V115H207.485ZM207.485 104.29V102.59H208.641V104.29H207.485ZM218.634 115H217.478V110.053C217.478 109.01 217.325 108.251 217.019 107.775C216.713 107.288 216.231 107.044 215.574 107.044C215.12 107.044 214.673 107.157 214.231 107.384C213.789 107.599 213.398 107.9 213.058 108.285C212.729 108.659 212.491 109.09 212.344 109.577V115H211.188V106.143H212.242V108.149C212.48 107.718 212.791 107.344 213.177 107.027C213.562 106.698 213.998 106.443 214.486 106.262C214.973 106.081 215.477 105.99 215.999 105.99C216.486 105.99 216.9 106.081 217.24 106.262C217.58 106.443 217.852 106.704 218.056 107.044C218.26 107.373 218.407 107.775 218.498 108.251C218.588 108.716 218.634 109.237 218.634 109.815V115ZM220.385 112.45C220.385 111.895 220.543 111.419 220.861 111.022C221.178 110.614 221.614 110.302 222.17 110.087C222.736 109.86 223.388 109.747 224.125 109.747C224.555 109.747 225.003 109.781 225.468 109.849C225.932 109.917 226.346 110.019 226.709 110.155V109.407C226.709 108.659 226.488 108.064 226.046 107.622C225.604 107.18 224.992 106.959 224.21 106.959C223.734 106.959 223.263 107.05 222.799 107.231C222.345 107.401 221.869 107.656 221.371 107.996L220.929 107.18C221.507 106.783 222.073 106.489 222.629 106.296C223.184 106.092 223.751 105.99 224.329 105.99C225.417 105.99 226.278 106.302 226.913 106.925C227.547 107.548 227.865 108.41 227.865 109.509V113.606C227.865 113.765 227.899 113.884 227.967 113.963C228.035 114.031 228.142 114.071 228.29 114.082V115C228.165 115.011 228.057 115.023 227.967 115.034C227.876 115.045 227.808 115.045 227.763 115.034C227.479 115.023 227.264 114.932 227.117 114.762C226.969 114.592 226.89 114.411 226.879 114.218L226.862 113.572C226.465 114.082 225.949 114.479 225.315 114.762C224.68 115.034 224.034 115.17 223.377 115.17C222.81 115.17 222.294 115.051 221.83 114.813C221.376 114.564 221.019 114.235 220.759 113.827C220.509 113.408 220.385 112.949 220.385 112.45ZM226.318 113.13C226.442 112.971 226.539 112.818 226.607 112.671C226.675 112.524 226.709 112.393 226.709 112.28V110.988C226.323 110.841 225.921 110.727 225.502 110.648C225.094 110.569 224.68 110.529 224.261 110.529C223.433 110.529 222.765 110.693 222.255 111.022C221.745 111.351 221.49 111.798 221.49 112.365C221.49 112.694 221.575 113.005 221.745 113.3C221.915 113.583 222.164 113.821 222.493 114.014C222.821 114.195 223.207 114.286 223.649 114.286C224.204 114.286 224.72 114.178 225.196 113.963C225.683 113.748 226.057 113.47 226.318 113.13ZM233.269 115.17C232.544 115.17 231.87 115.051 231.246 114.813C230.623 114.575 230.085 114.212 229.631 113.725L230.107 112.909C230.606 113.374 231.105 113.714 231.603 113.929C232.113 114.133 232.652 114.235 233.218 114.235C233.91 114.235 234.471 114.099 234.901 113.827C235.332 113.544 235.547 113.141 235.547 112.62C235.547 112.269 235.44 112.002 235.224 111.821C235.02 111.628 234.72 111.475 234.323 111.362C233.938 111.237 233.473 111.107 232.929 110.971C232.317 110.801 231.802 110.625 231.382 110.444C230.974 110.251 230.663 110.013 230.447 109.73C230.243 109.435 230.141 109.056 230.141 108.591C230.141 108.013 230.283 107.537 230.566 107.163C230.861 106.778 231.258 106.489 231.756 106.296C232.266 106.092 232.833 105.99 233.456 105.99C234.136 105.99 234.737 106.098 235.258 106.313C235.78 106.528 236.205 106.829 236.533 107.214L235.972 107.996C235.655 107.633 235.275 107.367 234.833 107.197C234.403 107.016 233.921 106.925 233.388 106.925C233.026 106.925 232.68 106.976 232.351 107.078C232.023 107.169 231.751 107.327 231.535 107.554C231.331 107.769 231.229 108.07 231.229 108.455C231.229 108.772 231.309 109.022 231.467 109.203C231.626 109.373 231.864 109.52 232.181 109.645C232.499 109.758 232.89 109.883 233.354 110.019C234.023 110.2 234.607 110.387 235.105 110.58C235.604 110.761 235.989 110.999 236.261 111.294C236.533 111.589 236.669 112.002 236.669 112.535C236.669 113.362 236.358 114.008 235.734 114.473C235.111 114.938 234.289 115.17 233.269 115.17Z" fill="#F97E0D"/>
</svg>
